<?xml version="1.0" encoding="UTF-8"?>
<!DOCTYPE svg PUBLIC "-//W3C//DTD SVG 1.1//EN" "http://www.w3.org/Graphics/SVG/1.1/DTD/svg11.dtd">
<!-- Creator: CorelDRAW -->
<svg xmlns="http://www.w3.org/2000/svg" xml:space="preserve" width="700px" height="142px" version="1.1" style="shape-rendering:geometricPrecision; text-rendering:geometricPrecision; image-rendering:optimizeQuality; fill-rule:evenodd; clip-rule:evenodd"
viewBox="0 0 700 142"
 xmlns:xlink="http://www.w3.org/1999/xlink"
 xmlns:xodm="http://www.corel.com/coreldraw/odm/2003">
 <defs>
  <style type="text/css">
   <![CDATA[
    .fil0 {fill:none}
    .fil1 {fill:#231F20;fill-rule:nonzero}
   ]]>
  </style>
 </defs>
 <g id="Layer_x0020_1">
  <metadata id="CorelCorpID_0Corel-Layer"/>
  <rect class="fil0" width="700" height="142"/>
  <g id="_1492112057648">
   <path class="fil1" d="M214.36 70.59c0,9.54 -7.63,17.17 -17.17,17.17 -9.54,0 -17.17,-7.63 -17.17,-17.17 0,-9.54 7.63,-17.17 17.17,-17.17l17.17 0 0 17.17zm19.07 -70.59l-19.07 0 0 34.72c-6.49,0 -12.98,0 -17.17,0 -19.84,0 -35.87,16.03 -35.87,35.87 0,19.84 16.03,35.87 35.87,35.87 19.84,0 35.86,-16.03 35.86,-35.87 0,-9.92 0,-35.87 0,-35.87l0.38 -34.72z"/>
   <g>
    <path class="fil1" d="M423.07 87.76c9.54,0 17.17,-7.63 17.17,-17.17 0,-9.54 -7.63,-17.17 -17.17,-17.17 -9.54,0 -17.17,7.63 -17.17,17.17 0.38,9.54 8.01,17.17 17.17,17.17l0 0zm-35.48 -17.17c0,-19.84 16.02,-35.87 35.86,-35.87 19.84,0 35.87,16.03 35.87,35.87 0,19.84 -16.03,35.87 -35.87,35.87 -19.84,0 -35.86,-16.03 -35.86,-35.87z"/>
   </g>
   <path class="fil1" d="M519.22 70.59c0,-9.16 -7.63,-16.79 -16.79,-16.79 -9.15,0 -16.79,7.63 -16.79,16.79 0,4.58 0,34.34 0,34.34 -9.54,0 -18.69,0 -18.69,0 0,0 0,-24.42 0,-34.34 0,-19.84 16.02,-35.87 35.86,-35.87 19.84,0 35.87,16.03 35.87,35.87 0,9.92 0,34.34 0,34.34 0,0 -9.16,0 -18.7,0 -0.76,0 -0.76,-29.76 -0.76,-34.34z"/>
   <path class="fil1" d="M343.71 58.38c-2.68,-1.91 -1.91,-4.96 2.67,-6.11 5.72,-1.52 15.64,-0.38 24.04,3.44l8.77 -12.21c-3.82,-3.06 -12.21,-7.25 -24.42,-8.01 0,0 -20.6,-2.68 -29,12.97 0,0 -7.25,14.5 7.25,23.65 8.78,5.35 24.04,7.64 29,9.92 3.82,2.29 2.67,6.49 -3.05,7.64 -9.92,2.29 -22.9,-3.44 -27.09,-6.49l-9.16 12.59c6.1,4.58 13.74,8.78 25.95,10.68 0,0 19.46,3.44 30.14,-9.92 1.91,-2.29 10.68,-18.69 -6.87,-28.23 -9.16,-4.96 -23.66,-7.25 -28.23,-9.92z"/>
   <path class="fil1" d="M255.95 118.67c0.76,0.38 9.53,6.48 17.93,6.48 20.6,0.38 21.75,-20.98 21.75,-25.94 -3.82,4.19 -11.83,6.86 -16.79,6.86 -19.84,0 -35.49,-15.26 -35.49,-35.1 0,-9.92 0,-34.72 0,-34.72 0,0 9.16,0 18.7,0 0,0 0,30.52 0,34.72 0,9.16 7.63,16.79 16.79,16.79 9.16,0 16.79,-7.63 16.79,-16.79 0,-3.81 0,-34.72 0,-34.72 9.54,0 18.69,0 18.69,0l0 34.72c0,30.91 1.53,62.58 -28.61,69.83 -22.51,5.34 -38.54,-8.78 -39.68,-9.54l9.92 -12.59z"/>
  </g>
 </g>
</svg>
