<?xml version="1.0" encoding="UTF-8"?>
<!DOCTYPE svg PUBLIC "-//W3C//DTD SVG 1.1//EN" "http://www.w3.org/Graphics/SVG/1.1/DTD/svg11.dtd">
<!-- Creator: CorelDRAW -->
<svg xmlns="http://www.w3.org/2000/svg" xml:space="preserve" width="700px" height="142px" version="1.1" style="shape-rendering:geometricPrecision; text-rendering:geometricPrecision; image-rendering:optimizeQuality; fill-rule:evenodd; clip-rule:evenodd"
viewBox="0 0 700 142"
 xmlns:xlink="http://www.w3.org/1999/xlink"
 xmlns:xodm="http://www.corel.com/coreldraw/odm/2003">
 <defs>
  <style type="text/css">
   <![CDATA[
    .fil0 {fill:none}
    .fil1 {fill:black;fill-rule:nonzero}
   ]]>
  </style>
 </defs>
 <g id="Layer_x0020_1">
  <metadata id="CorelCorpID_0Corel-Layer"/>
  <rect class="fil0" width="700" height="142"/>
  <path class="fil1" d="M19.67 0c8.93,3.55 17.94,5.81 27.15,7.37 13.05,2.2 26.23,3.19 39.49,3.41 5.53,0.07 11.06,0.35 16.52,1.56 15.74,3.33 26.51,16.37 25.88,31.76 -0.36,9.43 -4.68,16.87 -12.27,22.54 -0.92,0.71 -1.91,1.35 -3.05,2.13 4.33,2.41 8.37,4.82 11.77,8.15 14.89,14.75 12.97,38.14 -4.11,50.34 -7.52,5.38 -16.02,8.01 -25.24,8.29 -14.04,0.43 -28.14,0.14 -42.11,1.42 -10.71,0.99 -21.34,2.27 -31.83,4.75 -0.71,0.14 -1.42,0.21 -2.27,0.28 0.07,-47.28 0.07,-94.43 0.07,-142zm559.92 38c0,1.2 -0.71,1.2 -1.21,1.42 -6.23,3.33 -9.21,8.43 -9.21,15.52 0.07,13.83 -0.43,27.65 0,41.48 0.49,16.8 -8.08,27.57 -22.48,33.95 -18.36,8.09 -36.43,6.6 -53.17,-4.82 -9.14,-6.23 -14.1,-14.95 -14.03,-26.37 0.07,-13.82 -0.22,-27.65 0.07,-41.47 0.14,-8.3 -2.06,-15.1 -9.64,-19.85 1.13,0 2.19,0 3.33,0 9.57,0 19.14,0 28.71,0 4.68,0 6.17,1.49 6.17,6.09 0.07,19.15 0.14,38.29 0.14,57.36 0,9.07 6.31,15.45 15.6,15.74 9,0.28 16.23,-5.89 16.37,-14.89 0.29,-19.14 0.22,-38.28 0.29,-57.35 0,-5.96 0.78,-6.81 6.66,-6.81 9.78,0 19.64,0 29.42,0 0.99,0 1.99,0 2.98,0zm-326.82 66.64c9.36,0 18.79,-0.07 28.14,0.07 2.56,0.07 4.54,1.7 6.1,3.76 6.95,9.07 23.54,11.91 33.18,5.81 5.88,-3.76 5.95,-10.42 0.07,-14.11 -5.95,-3.75 -12.83,-4.6 -19.57,-5.6 -8.5,-1.2 -17.22,-1.13 -25.45,-4.11 -1.77,-0.64 -3.54,-1.27 -5.24,-2.05 -7.87,-3.69 -14.32,-8.8 -14.82,-18.22 -0.57,-10 3.4,-18.22 11.91,-23.9 6.66,-4.39 14.18,-6.3 21.98,-7.23 10.84,-1.27 21.69,-1.63 32.32,1.56 12.48,3.69 21.98,11.13 28.58,22.33 1.27,2.13 2.33,4.4 4.6,6.17 -0.99,0 -1.91,0 -2.9,0 -6.74,0 -13.47,-0.14 -20.21,0.07 -4.61,0.15 -8.36,-0.28 -10.07,-5.53 -0.77,-2.34 -3.19,-3.83 -5.45,-4.89 -8.72,-4.11 -17.59,-4.11 -26.45,-0.71 -3.33,1.28 -6.02,3.55 -5.88,7.59 0.07,3.83 2.91,5.46 5.95,6.73 7.09,2.84 14.68,3.33 22.12,4.54 6.88,1.06 13.76,2.06 20.42,4.18 3.19,0.99 6.17,2.34 9,4.11 14.89,9.43 16.31,28.29 2.98,39.92 -7.09,6.17 -15.67,8.65 -24.67,9.57 -13.61,1.49 -27.15,1.13 -39.98,-4.4 -8.3,-3.54 -14.82,-9.14 -19.57,-16.8 -2.06,-3.26 -3.4,-6.87 -7.09,-8.86zm326.39 -0.14c9.08,0 18.15,0 27.23,0 2.9,0 5.1,1.42 6.87,3.76 6.95,9 23.04,11.98 32.83,6.16 2.76,-1.63 4.82,-3.97 4.82,-7.37 0,-3.76 -2.27,-6.1 -5.39,-7.66 -7.3,-3.75 -15.31,-4.68 -23.25,-5.53 -7.66,-0.78 -15.31,-1.34 -22.55,-4.25 -1.63,-0.64 -3.26,-1.28 -4.89,-2.13 -16.23,-8.36 -18.29,-27.65 -4.18,-39.34 4.75,-3.9 10.21,-6.31 16.16,-7.66 13.05,-2.98 26.16,-3.76 39.28,-0.43 13.11,3.34 23.11,10.85 30.06,22.55 0.63,1.13 1.27,2.27 2.05,3.33 0.71,1.06 1.49,2.06 2.2,2.98 -8.72,0 -17.86,0.07 -27.01,0 -2.41,0 -3.9,-1.42 -4.75,-3.62 -1.06,-2.76 -3.05,-4.82 -5.6,-6.16 -9.15,-4.83 -18.58,-4.83 -28,-0.86 -3.12,1.28 -5.25,3.55 -5.11,7.31 0.14,3.54 2.63,5.17 5.39,6.31 7.51,3.19 15.6,3.54 23.47,4.89 8.15,1.35 16.37,2.34 24.03,5.67 12.97,5.67 18.5,15.24 16.02,27.72 -1.77,9 -7.37,15.1 -15.38,19.21 -5.89,2.98 -12.2,4.47 -18.65,5.11 -10.63,1.06 -21.27,0.92 -31.62,-1.85 -12.19,-3.26 -21.76,-9.99 -28.14,-21.05 -1.49,-2.63 -3.05,-5.18 -5.89,-7.09zm-111.16 -0.07c-4.25,3.19 -6.94,6.45 -9.14,10.06 -8.79,14.32 -22.05,20.28 -38.43,20.63 -9.43,0.22 -18.57,-1.06 -27.29,-4.82 -18.65,-8.01 -29.07,-24.38 -28.22,-44.87 0.71,-16.95 6.45,-31.9 21.91,-40.41 18.43,-10.21 37.79,-9.71 56.29,0.21 13.68,7.37 18.86,20.49 20.13,35.38 0.22,2.19 0.14,4.46 0.14,6.73 -0.07,4.96 -1.13,6.03 -6.09,6.03 -18.79,0 -37.58,0 -56.36,0 -7.09,0 -8.3,1.49 -6.88,8.5 1.13,5.25 3.9,9.36 8.72,11.92 6.73,3.54 13.97,4.32 21.34,2.62 4.96,-1.14 8.58,-4.33 11.2,-8.65 1.13,-1.99 2.62,-3.26 5.03,-3.26 8.87,0 17.73,-0.07 27.65,-0.07zm-51.54 -27.01c5.82,0 11.56,0 17.37,0 3.97,0 5.39,-1.71 4.68,-5.53 -0.42,-2.2 -1.35,-4.26 -2.55,-6.17 -6.24,-10 -21.48,-13.4 -32.47,-7.23 -4.75,2.69 -7.94,6.66 -9.29,11.91 -1.27,4.89 0.36,6.95 5.32,6.95 5.6,0.07 11.27,0.07 16.94,0.07zm-272.58 -8.51c5.24,-5.74 8.72,-11.84 13.11,-17.23 5.46,-6.66 12.55,-10.7 20.99,-12.26 14.11,-2.63 28.21,-2.41 42.11,1.27 15.1,4.04 22.12,13.47 22.19,29.14 0.07,15.03 0,29.99 0,45.02 0,9.78 1.34,13.04 8.5,20.27 -3.82,0 -7.16,0 -10.56,0 -4.61,0 -9.22,0 -13.82,0 -8.65,0 -10.28,-1.2 -12.83,-9.42 -0.22,0 -0.5,-0.15 -0.64,-0.08 -16.38,12.06 -34.46,11.49 -52.75,6.6 -9.43,-2.55 -14.81,-9.57 -16.02,-19.57 -1.21,-10.14 1.84,-18.43 10.42,-24.25 8.23,-5.6 17.65,-7.72 27.22,-9.42 7.31,-1.28 14.68,-2.34 21.98,-3.55 1.28,-0.21 2.55,-0.57 3.76,-0.99 6.17,-2.13 7.66,-6.66 3.9,-12.12 -2.2,-3.19 -5.39,-4.97 -9,-5.89 -5.82,-1.56 -11.7,-1.35 -17.44,0.5 -3.34,1.06 -6.24,2.83 -8.09,5.95 -2.55,4.47 -6.45,6.17 -11.55,6.03 -6.81,-0.14 -13.69,0 -21.48,0zm69.54 18.15c-5.67,3.83 -11.55,5.1 -17.51,6.17 -7.02,1.27 -14.39,1.41 -20.98,4.68 -4.54,2.26 -6.88,5.81 -6.38,10.06 0.42,3.83 3.05,6.67 8.08,7.8 8.22,1.84 16.52,1.84 24.46,-0.99 7.3,-2.55 11.62,-7.94 12.33,-15.81 0.29,-3.69 0,-7.45 0,-11.91zm-165.18 26.51c1.28,0.85 2.62,0.57 3.9,0.57 9.57,0 19.14,0.07 28.64,0 2.98,0 5.89,-0.14 8.79,-0.43 8.58,-0.92 15.32,-7.58 15.6,-15.17 0.35,-9.28 -4.75,-15.17 -14.46,-16.94 -2.91,-0.57 -5.89,-0.64 -8.79,-0.64 -10,0 -20.07,0 -30.06,0 -1.14,0 -2.34,-0.28 -3.62,0.5 0,10.63 0,21.41 0,32.11zm0 -81.03c0,9.43 0,18.22 0,27.15 0.71,0.14 1.28,0.29 1.84,0.29 11.35,0 22.69,0 34.03,0 3.69,0 7.23,-0.85 10.57,-2.56 5.17,-2.62 7.72,-7.23 7.09,-12.69 -0.78,-6.31 -5.53,-10.98 -13.19,-11.69 -13.33,-1.14 -26.66,-0.22 -40.34,-0.5z"/>
 </g>
</svg>
