<?xml version="1.0" encoding="UTF-8"?>
<!DOCTYPE svg PUBLIC "-//W3C//DTD SVG 1.1//EN" "http://www.w3.org/Graphics/SVG/1.1/DTD/svg11.dtd">
<!-- Creator: CorelDRAW -->
<svg xmlns="http://www.w3.org/2000/svg" xml:space="preserve" width="700px" height="142px" version="1.1" style="shape-rendering:geometricPrecision; text-rendering:geometricPrecision; image-rendering:optimizeQuality; fill-rule:evenodd; clip-rule:evenodd"
viewBox="0 0 700 142"
 xmlns:xlink="http://www.w3.org/1999/xlink"
 xmlns:xodm="http://www.corel.com/coreldraw/odm/2003">
 <defs>
  <style type="text/css">
   <![CDATA[
    .fil0 {fill:none}
    .fil1 {fill:#0B5ED7;fill-rule:nonzero}
   ]]>
  </style>
 </defs>
 <g id="Layer_x0020_1">
  <metadata id="CorelCorpID_0Corel-Layer"/>
  <rect class="fil0" width="700" height="142"/>
  <g>
   <path id="path2859" class="fil1" d="M237.47 9.4l-37.61 0 0 48.97 -39.15 0 0 -48.97 -37.61 0 0 123.2 37.61 0 0 -48.46 39.15 0 0 48.46 37.61 0 0 -123.2zm130.82 98.45l0 -98.45 -37.61 0 0 123.2 68 0 5.66 -24.75 -36.05 0zm-65.41 -98.45l-37.61 0 0 123.2 37.61 0 0 -123.2zm152.46 0l-37.59 0 0 123.2 37.59 0 0 -123.2zm185.41 31.44c0,-6.7 6.71,-9.8 17.51,-9.8 11.85,0 24.74,2.59 33.49,6.21l-3.08 -26.82c-9.8,-2.07 -18.56,-3.61 -34.51,-3.61 -30.39,0 -51,12 -51,37.12 0,43.3 58.74,34.55 58.74,54.65 0,7.72 -5.69,11.83 -19.59,11.83 -12.34,0 -31.43,-4.11 -42.75,-9.79l4.13 28.37c11.32,4.13 26.77,6.18 39.15,6.18 31.41,0 57.16,-10.31 57.16,-41.25 0,-41.22 -59.25,-33.5 -59.25,-53.09l0 0zm-106.08 62.38c35,0 57.16,-18.05 57.16,-49.49 0,-34.53 -23.68,-46.91 -62.33,-46.91 -14.93,0 -32.96,1.04 -45.83,2.58l0 123.2 37.61 0 0 -29.38 13.39 0zm20.08 -48.97c0,15.97 -7.72,26.81 -27.31,26.81l-6.16 0 0 -50.91c2.18,-0.13 4.23,-0.13 6.16,-0.13 18.54,0 27.31,8.76 27.31,24.23l0 0zm-503.75 48.97c35.02,0 57.17,-18.05 57.17,-49.49 0,-34.53 -23.69,-46.91 -62.32,-46.91 -14.95,0 -32.96,1.04 -45.85,2.58l0 123.2 37.61 0 0 -29.38 13.39 0zm20.1 -48.97c0,15.97 -7.74,26.81 -27.31,26.81l-6.18 0 0 -50.91c2.19,-0.13 4.25,-0.13 6.18,-0.13 18.54,0 27.31,8.76 27.31,24.23l0 0zm0 0l0 0 0 0z"/>
  </g>
 </g>
</svg>
